<svg width="319" height="319" viewBox="0 0 319 319" fill="none" xmlns="http://www.w3.org/2000/svg">
<g opacity="0.5">
<path d="M184.044 47.0508C194.806 46.2674 205.618 47.6116 215.86 51.0064C226.103 54.4013 235.577 59.7805 243.742 66.8367C251.906 73.893 258.6 82.4882 263.442 92.1317C268.285 101.775 271.18 112.278 271.964 123.04" stroke="white" stroke-width="1.5" stroke-linecap="round"/>
<path opacity="0.75" d="M120.759 33.7407C146.026 15.3743 177.554 7.79736 208.408 12.6768C239.261 17.5562 266.913 34.4922 285.279 59.7592C303.646 85.0262 311.223 116.554 306.343 147.408C301.464 178.261 284.528 205.913 259.261 224.279" stroke="white" stroke-width="1.5" stroke-linecap="round"/>
<path opacity="0.5" d="M45.1948 78.4552C55.1935 49.8133 73.461 24.7795 97.6872 6.51954C121.913 -11.7404 151.01 -22.4064 181.298 -24.1296C211.586 -25.8528 241.705 -18.5559 267.846 -3.16158C293.987 12.2328 314.976 35.0331 328.159 62.3561C341.342 89.6792 346.126 120.298 341.908 150.34C337.689 180.382 324.656 208.499 304.458 231.134C284.259 253.77 257.803 269.907 228.433 277.506C199.063 285.105 168.099 283.825 139.457 273.826" stroke="white" stroke-width="1.5" stroke-linecap="round"/>
<path opacity="0.25" d="M209.808 316.964C106.004 327.899 12.9897 252.613 2.05524 148.808C-8.87926 45.004 66.4067 -48.0103 170.211 -58.9448C274.016 -69.8793 367.03 5.40671 377.964 109.211C388.899 213.016 313.613 306.03 209.808 316.964Z" stroke="white" stroke-width="1.5" stroke-linecap="round"/>
</g>
</svg>
