<svg width="144" height="32" viewBox="0 0 144 32" fill="none" xmlns="http://www.w3.org/2000/svg">
<circle cx="128" cy="16" r="14" stroke="white" stroke-width="3" stroke-linecap="round"/>
<circle opacity="0.5" cx="15.9928" cy="15.9928" r="13.9928" stroke="white" stroke-width="3" stroke-linecap="round"/>
<path d="M15.9932 2C17.8308 2 19.6504 2.36194 21.3481 3.06514C23.0457 3.76835 24.5883 4.79905 25.8877 6.09841C27.187 7.39777 28.2177 8.94033 28.9209 10.638C29.6241 12.3357 29.9861 14.1553 29.9861 15.9928" stroke="white" stroke-width="3" stroke-linecap="round"/>
<circle opacity="0.5" cx="53.2018" cy="15.9928" r="13.9928" stroke="white" stroke-width="3" stroke-linecap="round"/>
<path d="M53.2022 2C56.9133 2 60.4725 3.47424 63.0966 6.0984C65.7208 8.72257 67.1951 12.2817 67.1951 15.9928C67.1951 19.704 65.7208 23.2631 63.0967 25.8873C60.4725 28.5114 56.9134 29.9857 53.2022 29.9857" stroke="white" stroke-width="3" stroke-linecap="round"/>
<circle opacity="0.5" cx="89.9928" cy="15.9928" r="13.9928" stroke="white" stroke-width="3" stroke-linecap="round"/>
<path d="M89.9928 2C92.7604 2 95.4657 2.82067 97.7669 4.35822C100.068 5.89577 101.861 8.08115 102.921 10.638C103.98 13.1949 104.257 16.0084 103.717 18.7227C103.177 21.4371 101.844 23.9303 99.8873 25.8873C97.9304 27.8442 95.4371 29.1769 92.7227 29.7168C90.0084 30.2567 87.1949 29.9796 84.638 28.9206C82.0812 27.8615 79.8958 26.068 78.3582 23.7669C76.8207 21.4658 76 18.7604 76 15.9929" stroke="white" stroke-width="3" stroke-linecap="round"/>
<path d="M126.137 13.36V19H124.569V13.36H126.137ZM132.838 13.36L130.894 19H128.886L126.934 13.36H128.614L129.894 17.432L131.166 13.36H132.838Z" fill="white"/>
<path d="M88.5046 13.36V19H86.9366V13.36H88.5046ZM91.2855 13.36V19H89.7175V13.36H91.2855ZM94.0665 13.36V19H92.4985V13.36H94.0665Z" fill="white"/>
<path d="M52.3951 13.36V19H50.8271V13.36H52.3951ZM55.176 13.36V19H53.608V13.36H55.176Z" fill="white"/>
<path d="M17.2855 13.36V19H15.7175V13.36H17.2855Z" fill="white"/>
</svg>
