<svg width="25" height="24" viewBox="0 0 25 24" fill="none" xmlns="http://www.w3.org/2000/svg">
<path d="M2.42763 6.85399L11.6746 1.30999C11.83 1.21674 12.0079 1.16748 12.1891 1.16748C12.3704 1.16748 12.5482 1.21674 12.7036 1.30999L21.9416 6.85499C22.0158 6.8994 22.0771 6.96227 22.1197 7.03746C22.1623 7.11264 22.1847 7.19758 22.1846 7.28399V20C22.1846 20.2652 22.0793 20.5196 21.8917 20.7071C21.7042 20.8946 21.4498 21 21.1846 21H3.18463C2.91941 21 2.66506 20.8946 2.47752 20.7071C2.28999 20.5196 2.18463 20.2652 2.18463 20V7.28299C2.18461 7.19658 2.20699 7.11164 2.24958 7.03646C2.29216 6.96127 2.35351 6.8984 2.42763 6.85399ZM4.18463 8.13299V19H20.1846V8.13199L12.1886 3.33199L4.18463 8.13199V8.13299ZM12.2446 13.698L17.5406 9.23499L18.8286 10.765L12.2586 16.302L5.54863 10.772L6.82063 9.22799L12.2446 13.698Z" fill="#897E9E"/>
</svg>
