<svg width="964" height="964" viewBox="0 0 964 964" fill="none" xmlns="http://www.w3.org/2000/svg">
<path opacity="0.1" d="M689.353 458.706C692.411 485.935 690.077 513.499 682.482 539.826C674.888 566.153 662.183 590.726 645.092 612.142C628.001 633.559 606.859 651.399 582.874 664.645C558.888 677.89 532.528 686.282 505.299 689.341" stroke="white" stroke-width="3" stroke-linecap="round"/>
<path opacity="0.1" d="M699.133 276.35C753.675 333.937 783.106 410.832 780.952 490.119C778.798 569.406 745.236 644.59 687.649 699.132C630.062 753.673 553.167 783.104 473.88 780.951C394.593 778.797 319.409 745.235 264.868 687.648" stroke="white" stroke-width="3" stroke-linecap="round"/>
<path opacity="0.1" d="M328.324 124.126C399.105 93.7317 477.309 85.0087 553.048 99.0605C628.787 113.112 698.658 149.307 753.825 203.069C808.993 256.831 846.979 325.744 862.981 401.095C878.983 476.446 872.281 554.85 843.724 626.392C815.166 697.933 766.035 759.401 702.544 803.02C639.053 846.639 564.053 870.451 487.028 871.446C410.003 872.44 334.414 850.571 269.818 808.605C205.221 766.639 154.52 706.461 124.126 635.68" stroke="white" stroke-width="3" stroke-linecap="round"/>
<path opacity="0.1" d="M15.2597 593.572C-46.3598 335.798 112.654 76.8792 370.428 15.2597C628.202 -46.3598 887.121 112.654 948.74 370.428C1010.36 628.202 851.346 887.121 593.572 948.74C335.798 1010.36 76.8792 851.346 15.2597 593.572Z" stroke="white" stroke-width="3" stroke-linecap="round"/>
</svg>
