<svg width="48" height="48" viewBox="0 0 48 48" fill="none" xmlns="http://www.w3.org/2000/svg">
<path fill-rule="evenodd" clip-rule="evenodd" d="M39.7916 25.9935C40.4809 26.1373 40.9231 26.8127 40.7792 27.502C40.0868 30.8207 38.4259 33.8595 36.0064 36.2342C33.5869 38.6089 30.5175 40.2129 27.1865 40.8432C23.8554 41.4735 20.4123 41.1019 17.2924 39.7753C14.1726 38.4488 11.5162 36.2269 9.65911 33.3906C7.80204 30.5543 6.82773 27.231 6.85939 23.841C6.89105 20.451 7.92725 17.1465 9.83696 14.3454C11.7467 11.5443 14.4441 9.37239 17.5882 8.10433C20.7323 6.83628 24.1818 6.52902 27.5005 7.22143C28.1898 7.36524 28.632 8.04061 28.4881 8.7299C28.3443 9.41919 27.669 9.86139 26.9797 9.71758C24.1547 9.12817 21.2183 9.38972 18.542 10.4691C15.8656 11.5486 13.5694 13.3974 11.9438 15.7818C10.3182 18.1662 9.43612 20.9791 9.40918 23.8648C9.38223 26.7505 10.2116 29.5794 11.7924 31.9938C13.3732 34.4081 15.6345 36.2995 18.2902 37.4287C20.9459 38.5579 23.8769 38.8743 26.7124 38.3377C29.5479 37.8012 32.1607 36.4359 34.2202 34.4144C36.2798 32.393 37.6937 29.8062 38.2831 26.9812C38.4269 26.2919 39.1023 25.8497 39.7916 25.9935Z" fill="white"/>
</svg>
