<svg width="60" height="60" viewBox="0 0 60 60" fill="none" xmlns="http://www.w3.org/2000/svg">
<g clip-path="url(#clip0_545_246)">
<path d="M41.2875 26.2811L40.515 8.04997C40.4362 6.20497 38.9188 4.74997 37.0713 4.74997C35.1738 4.74997 33.625 6.28747 33.625 8.19622V4.47397C33.625 2.58335 32.1131 1.01935 30.2225 1.0001C28.084 0.978474 26.6842 2.5441 26.61 4.29985L26.4375 8.34235C26.5212 6.38372 24.955 4.74997 22.9937 4.74997H22.8375C21.0275 4.74997 19.5262 6.14872 19.3988 7.95372L18.6362 18.76C18.7662 16.925 17.3113 15.375 15.4825 15.375C13.8388 15.375 12.47 16.6337 12.3313 18.2712C11.7825 24.7937 10.5 40.195 10.5 41.8887C10.5 44.3562 11.4212 46.735 13.0837 48.5587L16.4175 52.215C17.8756 53.8163 18.7779 55.8425 18.9641 58.0858C19.007 58.603 19.4422 58.9852 19.9611 58.9843H37.6064C38.1186 58.9835 38.5505 58.5823 38.5995 58.0725C38.7182 56.8358 39.1968 54.5291 41.1287 52.4862L46.545 46.7587C48.4425 44.7525 49.5 42.095 49.5 39.3337V35.175C49.5 30.4863 45.8829 26.6446 41.2875 26.2811Z" fill="#FFF7F3"/>
<path d="M28.4716 1.39907C29.73 0.761567 30.9338 2.35019 29.9873 3.39619C29.475 3.96244 29.1456 4.70519 29.1098 5.54994L28.1056 29.1534C28.0766 29.8363 27.5145 30.3749 26.8311 30.3749C26.1052 30.3749 25.5257 29.7702 25.5566 29.0449L26.61 4.29994C26.6681 2.92457 27.4457 1.91869 28.4716 1.39907Z" fill="#FFF7F3"/>
<path d="M21.1631 5.19262C22.429 4.51037 23.6659 6.10624 22.7267 7.19524C22.2516 7.74624 21.9524 8.44549 21.8989 9.20362C21.8469 9.94237 20.7459 25.5534 20.244 32.6664C20.2135 33.0992 19.9676 33.4867 19.5894 33.6995C18.6935 34.2035 17.5965 33.51 17.6687 32.4846C18.1247 26.021 19.3441 8.73249 19.3989 7.95374C19.4909 6.65012 20.2109 5.70587 21.1631 5.19262Z" fill="#FFF7F3"/>
<path d="M37.075 7.07001C36.4875 7.68626 36.125 8.52126 36.125 9.44626V24.25H33.625V8.19626C33.625 6.67376 34.525 5.55001 35.6912 5.04501C36.9575 4.49751 38.0263 6.07126 37.075 7.07001Z" fill="#FFF7F3"/>
<path d="M37.76 35.205C34.185 36.8438 31.675 40.3675 31.4875 44.5037L31.465 45.005C31.4387 45.5563 30.9714 45.9834 30.4201 45.9584C29.8851 45.9334 29.4662 45.4925 29.4662 44.9625C29.4662 41.7046 30.7772 38.3509 33.32 35.8662C29.7927 34.6839 27.4502 30.9441 28.2262 27.0125C28.54 25.4375 29.9862 24.25 31.5912 24.25H41.2012L41.2862 26.25H31.5912C30.9437 26.25 30.3137 26.77 30.1875 27.4037C29.4887 30.95 32.2125 34.25 35.67 34.25H37.5537C38.0912 34.25 38.2487 34.98 37.76 35.205Z" fill="#FADFD4"/>
<path d="M33.8206 45.0051H31.9668C31.6934 45.0051 31.4751 44.7769 31.4875 44.5038C31.6288 41.3779 33.0971 38.6016 35.349 36.7253C35.9454 36.2284 36.7678 36.1208 37.4934 36.3964C39.1476 37.0247 39.4061 38.9049 38.3433 39.9751C37.4103 40.9143 36.5521 42.0942 35.9716 43.5587C35.6236 44.4364 34.765 45.0051 33.8206 45.0051Z" fill="#FFF7F3"/>
<path d="M35.3412 28.75C34.6937 28.7428 34.0637 29.27 33.9375 29.9038C33.8244 30.4786 33.8011 31.0471 33.8564 31.5964C33.9729 32.7545 32.5747 33.4163 31.7566 32.5884C30.4767 31.2934 29.797 29.3869 30.1875 27.4038C30.3137 26.77 30.9437 26.25 31.5912 26.25C42.0455 26.25 41.2855 26.2329 41.2875 26.2811C42.9476 26.413 42.8017 28.713 41.2676 28.7426C39.7594 28.7719 37.8659 28.778 35.3412 28.75Z" fill="#FFF7F3"/>
<path d="M11.2429 42.2602C10.7839 42.0307 10.5055 41.5511 10.5339 41.0387C10.7402 37.3121 11.8354 24.1659 12.3313 18.2713C12.377 17.7313 12.5434 17.2549 12.795 16.8526C13.7248 15.3661 15.9867 16.7012 15.1785 18.2572C15 18.6009 14.874 19.0172 14.8314 19.5213C14.376 24.9343 13.4153 36.4626 13.1015 41.1958C13.0407 42.1129 12.065 42.6712 11.2429 42.2602Z" fill="#FFF7F3"/>
<path d="M32.625 4.4465V21.0928C32.625 21.645 33.0727 22.0928 33.625 22.0928C34.1772 22.0928 34.625 21.645 34.625 21.0928V8.1965C34.625 6.8475 35.7225 5.75 37.0715 5.75C38.3865 5.75 39.4601 6.77912 39.5157 8.09287L40.0742 21.2731C40.097 21.8105 40.5399 22.2309 41.0726 22.2309C41.6419 22.2309 42.0965 21.7574 42.0725 21.1885L41.514 8.00825C41.3654 4.50163 37.456 2.61325 34.6251 4.48612C34.625 1.90387 32.5559 0 30.1785 0C27.6776 0 25.7137 1.83025 25.6105 4.2575L24.501 30.3325C24.4775 30.8843 24.9057 31.3506 25.4575 31.3741C26.0129 31.3975 26.4759 30.9661 26.4991 30.4175L27.6086 4.3425C27.6581 3.17838 28.5569 2 30.1785 2C31.5275 2 32.625 3.0975 32.625 4.4465Z" fill="#221836"/>
<path d="M22.3259 3.7791C20.2024 4.0231 18.552 5.74923 18.4014 7.88348L16.5025 34.8046C16.4618 35.3815 16.918 35.875 17.501 35.875C18.0213 35.875 18.4603 35.4722 18.4975 34.9454L20.3965 8.02423C20.4794 6.84985 21.3868 5.90023 22.5543 5.7661C23.103 5.7031 23.4967 5.2071 23.4337 4.65848C23.3707 4.10985 22.8742 3.71598 22.3259 3.7791Z" fill="#221836"/>
<path d="M13.8225 47.8845C12.3248 46.2415 11.5 44.1121 11.5 41.889C11.5 40.7416 12.1834 31.9441 13.328 18.3556C13.392 17.5961 13.8588 16.9187 14.5461 16.5877C15.0438 16.3481 15.2529 15.7505 15.0134 15.253C14.7738 14.7553 14.1762 14.5462 13.6786 14.7857C12.3563 15.4223 11.4582 16.726 11.3351 18.1877C10.6497 26.3236 9.5 40.2215 9.5 41.889C9.5 44.6117 10.5101 47.2195 12.3442 49.2318L15.6779 52.8892C17.2064 54.566 18.0092 56.6777 18 58.9961C17.9978 59.5497 18.446 60.0001 19 60.0001C19.5504 60.0001 19.9978 59.555 20 59.0041C20.0111 56.2163 19.0011 53.5662 17.1561 51.542L13.8225 47.8845Z" fill="#221836"/>
<path d="M34.8814 37.0743C34.4697 36.7059 33.8375 36.7411 33.4694 37.1528C31.6699 39.164 30.6111 41.7585 30.4885 44.4583L30.4201 45.9585C30.395 46.5103 30.8221 46.9775 31.3739 47.0025C31.9266 47.0275 32.3932 46.5998 32.4182 46.049L32.4864 44.5491C32.5882 42.3084 33.4666 40.1553 34.9599 38.4864C35.3281 38.0748 35.293 37.4425 34.8814 37.0743Z" fill="#221836"/>
<path d="M40.575 25.25H31.5911C30.471 25.25 29.4238 26.1113 29.207 27.2108C28.3905 31.3511 31.5595 35.25 35.6695 35.25H41.5095C42.0617 35.25 42.5095 34.8022 42.5095 34.25C42.5095 33.6978 42.0617 33.25 41.5095 33.25H35.6695C32.8424 33.25 30.5916 30.5263 31.1693 27.5976C31.2019 27.4319 31.4228 27.25 31.5911 27.25H40.575C44.9449 27.25 48.5 30.8051 48.5 35.175V39.3338C48.5 41.8503 47.5478 44.243 45.8186 46.0714L40.4022 51.7985C38.5095 53.7999 37.5604 56.4238 37.5604 58.9166C37.5301 59.4835 37.9822 59.9689 38.5602 59.9689C39.0294 59.9689 39.448 59.6371 39.5409 59.1594C39.5604 59.0588 39.5604 58.9841 39.5605 58.8976C39.561 57.9054 39.7859 55.3611 41.8555 53.1727L47.2719 47.4456C49.3535 45.2444 50.5 42.3635 50.5 39.3338V35.175C50.5 29.7024 46.0476 25.25 40.575 25.25Z" fill="#221836"/>
</g>
<defs>
<clipPath id="clip0_545_246">
<rect width="60" height="60" fill="white"/>
</clipPath>
</defs>
</svg>
