<svg width="960" height="960" viewBox="0 0 960 960" fill="none" xmlns="http://www.w3.org/2000/svg">
<g opacity="0.2">
<path d="M475.147 271.38C502.543 270.743 529.795 275.508 555.349 285.404C580.902 295.299 604.257 310.13 624.079 329.051C643.9 347.972 659.801 370.612 670.873 395.679C681.946 420.745 687.972 447.746 688.609 475.142" stroke="#D9D9D9" stroke-width="3" stroke-linecap="round"/>
<path d="M294.355 245.496C356.549 196.26 435.755 173.747 514.548 182.91C593.34 192.073 665.266 232.161 714.502 294.355C763.738 356.549 786.25 435.755 777.088 514.548C767.925 593.34 727.837 665.266 665.643 714.502" stroke="#B7B7B7" stroke-width="3" stroke-linecap="round"/>
<path d="M109.895 601.415C85.8811 528.215 84.1132 449.538 104.815 375.333C125.516 301.128 167.757 234.728 226.195 184.53C284.634 134.332 356.646 102.59 433.124 93.3182C509.603 84.0467 587.113 97.6619 655.854 132.442C724.594 167.222 781.478 221.605 819.31 288.714C857.143 355.823 874.226 432.644 868.4 509.462C862.573 586.279 834.098 659.644 786.575 720.279C739.053 780.913 674.617 826.094 601.417 850.108" stroke="#7E7E7E" stroke-width="3" stroke-linecap="round"/>
<path d="M958.5 480C958.5 744.268 744.268 958.5 480 958.5C215.732 958.5 1.5 744.268 1.5 480C1.5 215.732 215.732 1.5 480 1.5C744.268 1.5 958.5 215.732 958.5 480Z" stroke="#7E7E7E" stroke-width="3"/>
</g>
</svg>
