<svg width="146" height="60" viewBox="0 0 146 60" fill="none" xmlns="http://www.w3.org/2000/svg">
<path d="M71.6346 43.5634V16.362H62.9996V13H83.9212V16.362H75.0285V43.5634H71.6346Z" fill="black"/>
<path d="M92.3791 44C90.4315 44 88.6702 43.4906 87.0949 42.4718C85.5197 41.4239 84.2739 40.0122 83.3574 38.2366C82.4409 36.4319 81.9827 34.3943 81.9827 32.1239C81.9827 29.8244 82.4552 27.7868 83.4004 26.0112C84.3455 24.2066 85.62 22.7948 87.2238 21.776C88.8277 20.7573 90.6177 20.2479 92.5939 20.2479C94.3982 20.2479 96.002 20.6699 97.4054 21.5141C98.8374 22.3582 99.9258 23.4497 100.67 24.7887L100.756 20.7281H104.021V43.5634H100.713V39.5028C99.9114 40.7835 98.7658 41.8605 97.2765 42.7338C95.7872 43.5779 94.1548 44 92.3791 44ZM93.1094 40.8127C94.5987 40.8127 95.9304 40.4488 97.1047 39.7211C98.2789 38.9643 99.1954 37.931 99.8542 36.6211C100.542 35.3112 100.885 33.7976 100.885 32.0803C100.885 30.4211 100.542 28.9366 99.8542 27.6267C99.1954 26.3169 98.2789 25.2981 97.1047 24.5704C95.9304 23.8136 94.5987 23.4352 93.1094 23.4352C91.5914 23.4352 90.2454 23.8136 89.0711 24.5704C87.9255 25.2981 87.0233 26.3169 86.3646 27.6267C85.7059 28.9366 85.3765 30.4211 85.3765 32.0803C85.3765 33.7685 85.7059 35.2821 86.3646 36.6211C87.0233 37.931 87.9255 38.9643 89.0711 39.7211C90.2454 40.4488 91.5914 40.8127 93.1094 40.8127Z" fill="black"/>
<path d="M109.396 43.5634V20.7281H112.661L112.704 25.138C113.306 23.7699 114.222 22.6202 115.454 21.6887C116.685 20.7281 118.089 20.2479 119.664 20.2479C120.151 20.2479 120.609 20.2915 121.039 20.3789C121.468 20.4662 121.826 20.5535 122.113 20.6408L121.21 24.3521C120.466 24.0319 119.721 23.8718 118.977 23.8718C117.688 23.8718 116.571 24.192 115.626 24.8324C114.68 25.4436 113.95 26.2587 113.435 27.2774C112.948 28.2962 112.704 29.4169 112.704 30.6394V43.5634H109.396Z" fill="black"/>
<path d="M134.529 44C132.324 44 130.348 43.4906 128.601 42.4718C126.882 41.4239 125.522 40.0122 124.519 38.2366C123.517 36.4319 123.016 34.3798 123.016 32.0803C123.016 29.8098 123.517 27.7868 124.519 26.0112C125.522 24.2066 126.882 22.7948 128.601 21.776C130.348 20.7573 132.324 20.2479 134.529 20.2479C136.734 20.2479 138.696 20.7573 140.415 21.776C142.162 22.7948 143.522 24.2066 144.496 26.0112C145.498 27.7868 146 29.8098 146 32.0803C146 34.3798 145.498 36.4319 144.496 38.2366C143.522 40.0122 142.162 41.4239 140.415 42.4718C138.696 43.4906 136.734 44 134.529 44ZM134.529 40.8563C136.104 40.8563 137.493 40.4779 138.696 39.7211C139.928 38.9643 140.887 37.931 141.575 36.6211C142.262 35.2821 142.606 33.7685 142.606 32.0803C142.606 30.392 142.262 28.9075 141.575 27.6267C140.887 26.3169 139.928 25.2835 138.696 24.5267C137.493 23.7699 136.104 23.3915 134.529 23.3915C132.954 23.3915 131.551 23.7699 130.319 24.5267C129.088 25.2835 128.128 26.3169 127.441 27.6267C126.753 28.9366 126.41 30.4211 126.41 32.0803C126.41 33.7685 126.753 35.2821 127.441 36.6211C128.128 37.931 129.088 38.9643 130.319 39.7211C131.551 40.4779 132.954 40.8563 134.529 40.8563Z" fill="black"/>
<path fill-rule="evenodd" clip-rule="evenodd" d="M26.5664 38.6374C26.1972 39.3141 25.3493 39.5634 24.6725 39.1942C23.4389 38.5212 22.3498 37.6117 21.4676 36.5178C20.5854 35.4238 19.9273 34.1669 19.5309 32.8186C19.1345 31.4703 19.0075 30.0572 19.1572 28.6598C19.3069 27.2625 19.7304 25.9083 20.4034 24.6746C20.7726 23.9979 21.6206 23.7486 22.2973 24.1178C22.974 24.487 23.2234 25.3349 22.8541 26.0116C22.3567 26.9235 22.0437 27.9244 21.933 28.9572C21.8223 29.99 21.9162 31.0345 22.2092 32.0311C22.5022 33.0276 22.9886 33.9567 23.6407 34.7653C24.2928 35.5738 25.0977 36.246 26.0096 36.7435C26.6863 37.1127 26.9356 37.9606 26.5664 38.6374Z" fill="#A8A6FE"/>
<path fill-rule="evenodd" clip-rule="evenodd" d="M33.1325 42.788C33.2454 43.5506 32.7187 44.2603 31.9561 44.3732C28.0905 44.9453 24.156 43.9584 21.018 41.6297C17.8801 39.3009 15.7957 35.8209 15.2236 31.9553C14.6514 28.0898 15.6383 24.1552 17.9671 21.0173C20.2959 17.8793 23.7758 15.795 27.6414 15.2228C28.404 15.11 29.1137 15.6367 29.2266 16.3993C29.3394 17.1619 28.8127 17.8716 28.0501 17.9844C24.917 18.4482 22.0964 20.1376 20.2089 22.681C18.3213 25.2244 17.5214 28.4134 17.9852 31.5466C18.4489 34.6797 20.1383 37.5003 22.6817 39.3879C25.2251 41.2754 28.4142 42.0753 31.5473 41.6115C32.3099 41.4987 33.0196 42.0254 33.1325 42.788Z" fill="#9481F9"/>
<path fill-rule="evenodd" clip-rule="evenodd" d="M47.0876 31.9802C47.8423 32.1377 48.3264 32.8771 48.169 33.6317C47.4109 37.2652 45.5924 40.5922 42.9435 43.1921C40.2946 45.792 36.9342 47.548 33.2873 48.2381C29.6403 48.9281 25.8707 48.5213 22.455 47.0689C19.0393 45.6166 16.131 43.184 14.0978 40.0787C12.0646 36.9735 10.9979 33.3351 11.0326 29.6236C11.0672 25.9121 12.2017 22.2943 14.2925 19.2276C16.3833 16.1608 19.3366 13.783 22.7788 12.3947C26.221 11.0064 29.9976 10.67 33.631 11.428C34.3857 11.5855 34.8698 12.3249 34.7123 13.0796C34.5549 13.8342 33.8155 14.3183 33.0608 14.1609C29.9679 13.5156 26.7531 13.8019 23.823 14.9837C20.8928 16.1655 18.3789 18.1896 16.5991 20.8001C14.8194 23.4107 13.8537 26.4903 13.8242 29.6497C13.7946 32.809 14.7027 35.9062 16.4334 38.5495C18.1641 41.1928 20.6398 43.2635 23.5473 44.4998C26.4549 45.7361 29.6638 46.0825 32.7682 45.495C35.8726 44.9076 38.7331 43.4128 40.988 41.1997C43.2429 38.9865 44.7908 36.1545 45.4361 33.0616C45.5936 32.3069 46.333 31.8228 47.0876 31.9802Z" fill="#7442F1"/>
<path fill-rule="evenodd" clip-rule="evenodd" d="M11.1935 22.44C7.12938 32.7151 12.1643 44.3394 22.4394 48.4035C32.7145 52.4677 44.3387 47.4327 48.4029 37.1577C52.4671 26.8826 47.4321 15.2583 37.157 11.1942C26.882 7.12999 15.2577 12.1649 11.1935 22.44ZM21.4126 50.9995C9.70378 46.3683 3.96629 33.122 8.59754 21.4132C13.2288 9.7044 26.475 3.9669 38.1839 8.59815C49.8927 13.2294 55.6302 26.4757 50.9989 38.1845C46.3677 49.8933 33.1214 55.6308 21.4126 50.9995Z" fill="#5F18EB"/>
<path d="M38.1587 19.7192L40.3856 21.7691L43.3017 20.9577L42.0403 23.7092L43.7131 26.2318L40.7065 25.8823L38.8243 28.2528L38.2275 25.2853L35.3915 24.2278L38.0292 22.7433L38.1587 19.7192Z" fill="#A8A6FE"/>
</svg>
