<svg width="90" height="37" viewBox="0 0 90 37" fill="none" xmlns="http://www.w3.org/2000/svg">
<path d="M44.0922 26.7619V9.9695H38.7616V7.89404H51.6772V9.9695H46.1874V26.7619H44.0922Z" fill="white"/>
<path d="M56.8985 27.0314C55.6962 27.0314 54.6089 26.7169 53.6365 26.088C52.664 25.4411 51.8949 24.5696 51.3291 23.4735C50.7634 22.3594 50.4805 21.1015 50.4805 19.6999C50.4805 18.2803 50.7722 17.0225 51.3557 15.9263C51.9391 14.8122 52.7259 13.9407 53.716 13.3118C54.7061 12.6829 55.8112 12.3684 57.0311 12.3684C58.145 12.3684 59.1351 12.629 60.0015 13.1501C60.8855 13.6712 61.5574 14.345 62.017 15.1716L62.0701 12.6649H64.0857V26.7619H62.0436V24.2551C61.5485 25.0458 60.8413 25.7107 59.9219 26.2497C59.0025 26.7709 57.9947 27.0314 56.8985 27.0314ZM57.3494 25.0638C58.2688 25.0638 59.0909 24.8391 59.8158 24.3899C60.5407 23.9227 61.1065 23.2848 61.5132 22.4762C61.9375 21.6676 62.1497 20.7331 62.1497 19.673C62.1497 18.6487 61.9375 17.7323 61.5132 16.9236C61.1065 16.115 60.5407 15.4861 59.8158 15.0369C59.0909 14.5697 58.2688 14.3361 57.3494 14.3361C56.4123 14.3361 55.5813 14.5697 54.8564 15.0369C54.1492 15.4861 53.5922 16.115 53.1856 16.9236C52.7789 17.7323 52.5756 18.6487 52.5756 19.673C52.5756 20.7152 52.7789 21.6496 53.1856 22.4762C53.5922 23.2848 54.1492 23.9227 54.8564 24.3899C55.5813 24.8391 56.4123 25.0638 57.3494 25.0638Z" fill="white"/>
<path d="M67.4039 26.7619V12.6649H69.4195L69.446 15.3873C69.8173 14.5427 70.3831 13.8329 71.1433 13.2579C71.9036 12.6649 72.77 12.3684 73.7424 12.3684C74.043 12.3684 74.3258 12.3954 74.5911 12.4493C74.8563 12.5032 75.0773 12.5571 75.2541 12.611L74.6971 14.9021C74.2374 14.7044 73.7777 14.6056 73.3181 14.6056C72.5224 14.6056 71.8329 14.8033 71.2494 15.1986C70.666 15.5759 70.2151 16.0791 69.8969 16.708C69.5963 17.3369 69.446 18.0288 69.446 18.7835V26.7619H67.4039Z" fill="white"/>
<path d="M82.9192 27.0314C81.5578 27.0314 80.3379 26.7169 79.2594 26.088C78.1985 25.4411 77.3587 24.5696 76.7399 23.4735C76.121 22.3594 75.8116 21.0925 75.8116 19.673C75.8116 18.2713 76.121 17.0225 76.7399 15.9263C77.3587 14.8122 78.1985 13.9407 79.2594 13.3118C80.3379 12.6829 81.5578 12.3684 82.9192 12.3684C84.2806 12.3684 85.4918 12.6829 86.5526 13.3118C87.6311 13.9407 88.4709 14.8122 89.0721 15.9263C89.6909 17.0225 90.0003 18.2713 90.0003 19.673C90.0003 21.0925 89.6909 22.3594 89.0721 23.4735C88.4709 24.5696 87.6311 25.4411 86.5526 26.088C85.4918 26.7169 84.2806 27.0314 82.9192 27.0314ZM82.9192 25.0907C83.8917 25.0907 84.7492 24.8571 85.4918 24.3899C86.252 23.9227 86.8443 23.2848 87.2687 22.4762C87.693 21.6496 87.9052 20.7152 87.9052 19.673C87.9052 18.6307 87.693 17.7143 87.2687 16.9236C86.8443 16.115 86.252 15.4771 85.4918 15.0099C84.7492 14.5427 83.8917 14.3091 82.9192 14.3091C81.9468 14.3091 81.0805 14.5427 80.3202 15.0099C79.5599 15.4771 78.9676 16.115 78.5433 16.9236C78.119 17.7323 77.9068 18.6487 77.9068 19.673C77.9068 20.7152 78.119 21.6496 78.5433 22.4762C78.9676 23.2848 79.5599 23.9227 80.3202 24.3899C81.0805 24.8571 81.9468 25.0907 82.9192 25.0907Z" fill="white"/>
<path fill-rule="evenodd" clip-rule="evenodd" d="M16.2696 23.7211C16.0417 24.1389 15.5182 24.2928 15.1005 24.0648C14.3389 23.6493 13.6666 23.0879 13.122 22.4126C12.5773 21.7373 12.1711 20.9613 11.9263 20.1289C11.6816 19.2966 11.6032 18.4242 11.6957 17.5616C11.7881 16.699 12.0495 15.863 12.465 15.1014C12.6929 14.6836 13.2164 14.5297 13.6342 14.7576C14.0519 14.9856 14.2058 15.509 13.9779 15.9268C13.6708 16.4897 13.4776 17.1076 13.4093 17.7452C13.3409 18.3828 13.3989 19.0276 13.5798 19.6428C13.7607 20.258 14.0609 20.8315 14.4635 21.3307C14.866 21.8299 15.3629 22.2448 15.9259 22.5519C16.3436 22.7799 16.4975 23.3033 16.2696 23.7211Z" fill="white"/>
<path fill-rule="evenodd" clip-rule="evenodd" d="M20.3232 26.2833C20.3929 26.7541 20.0677 27.1922 19.597 27.2619C17.2106 27.6151 14.7817 27.0059 12.8445 25.5683C10.9074 24.1306 9.62063 21.9823 9.26741 19.596C8.9142 17.2096 9.52342 14.7807 10.9611 12.8435C12.3987 10.9064 14.547 9.61963 16.9334 9.26641C17.4041 9.19673 17.8423 9.52188 17.9119 9.99266C17.9816 10.4634 17.6565 10.9016 17.1857 10.9712C15.2515 11.2575 13.5102 12.3005 12.345 13.8706C11.1798 15.4407 10.686 17.4094 10.9723 19.3436C11.2585 21.2778 12.3015 23.0191 13.8716 24.1843C15.4417 25.3496 17.4104 25.8434 19.3446 25.5571C19.8154 25.4874 20.2535 25.8125 20.3232 26.2833Z" fill="white"/>
<path fill-rule="evenodd" clip-rule="evenodd" d="M28.9379 19.6114C29.4038 19.7086 29.7027 20.1651 29.6055 20.631C29.1375 22.874 28.0149 24.9279 26.3796 26.5329C24.7443 28.1379 22.6698 29.2219 20.4185 29.648C18.1671 30.074 15.8399 29.8228 13.7313 28.9262C11.6227 28.0296 9.82729 26.5279 8.57214 24.6109C7.317 22.694 6.65849 20.4478 6.67988 18.1566C6.70128 15.8654 7.40163 13.632 8.69235 11.7388C9.98308 9.84558 11.8062 8.37764 13.9312 7.52059C16.0562 6.66355 18.3877 6.45588 20.6307 6.92386C21.0966 7.02106 21.3954 7.47752 21.2982 7.9434C21.201 8.40927 20.7446 8.70814 20.2787 8.61095C18.3693 8.21258 16.3847 8.38935 14.5758 9.11891C12.767 9.84846 11.215 11.098 10.1163 12.7096C9.01759 14.3212 8.42144 16.2223 8.40322 18.1727C8.38501 20.1231 8.94556 22.0351 10.014 23.6669C11.0824 25.2987 12.6107 26.577 14.4057 27.3402C16.2006 28.1034 18.1816 28.3172 20.098 27.9546C22.0145 27.592 23.7804 26.6692 25.1724 25.3029C26.5644 23.9367 27.52 22.1883 27.9184 20.279C28.0156 19.8131 28.472 19.5142 28.9379 19.6114Z" fill="white"/>
<path fill-rule="evenodd" clip-rule="evenodd" d="M6.77934 13.7218C4.27039 20.0649 7.37864 27.241 13.7218 29.7499C20.065 32.2589 27.241 29.1506 29.75 22.8075C32.2589 16.4643 29.1507 9.28824 22.8075 6.7793C16.4643 4.27035 9.28829 7.37859 6.77934 13.7218ZM13.0879 31.3525C5.85966 28.4935 2.3177 20.3161 5.17674 13.0879C8.03577 5.85962 16.2131 2.31766 23.4414 5.17669C30.6696 8.03573 34.2116 16.2131 31.3526 23.4413C28.4935 30.6696 20.3162 34.2115 13.0879 31.3525Z" fill="white"/>
<path d="M23.4261 12.0417L24.8009 13.3072L26.601 12.8063L25.8223 14.5049L26.855 16.0622L24.9989 15.8464L23.837 17.3098L23.4686 15.4779L21.7178 14.825L23.3462 13.9086L23.4261 12.0417Z" fill="white"/>
</svg>
