<svg width="475" height="306" viewBox="0 0 475 306" fill="none" xmlns="http://www.w3.org/2000/svg">
<g opacity="0.5">
<path d="M354.469 61.4332C365.231 60.6499 376.042 61.994 386.285 65.3889C396.528 68.7837 406.002 74.1629 414.166 81.2192C422.331 88.2754 429.025 96.8707 433.867 106.514C438.71 116.158 441.605 126.66 442.388 137.423" stroke="white" stroke-width="3" stroke-linecap="round"/>
<g opacity="0.7">
<path d="M291.184 48.123C316.451 29.7566 347.979 22.1797 378.833 27.0591C409.686 31.9385 437.337 48.8745 455.704 74.1415C474.07 99.4085 481.647 130.937 476.768 161.79C471.889 192.644 454.953 220.295 429.686 238.662" stroke="white" stroke-width="3" stroke-linecap="round"/>
</g>
<g opacity="0.5">
<path d="M215.62 92.8376C225.618 64.1956 243.886 39.1618 268.112 20.9019C292.338 2.64196 321.435 -8.02401 351.723 -9.74723C382.011 -11.4705 412.13 -4.17353 438.271 11.2208C464.412 26.6151 485.401 49.4154 498.584 76.7385C511.767 104.062 516.551 134.68 512.333 164.722C508.114 194.765 495.081 222.881 474.883 245.517C454.684 268.152 428.227 284.29 398.858 291.889C369.488 299.488 338.524 298.207 309.882 288.208" stroke="white" stroke-width="3" stroke-linecap="round"/>
</g>
<circle opacity="0.4" cx="360.435" cy="143.392" r="188.994" transform="rotate(83.9868 360.435 143.392)" stroke="white" stroke-width="3" stroke-linecap="round"/>
</g>
</svg>
