<svg width="817" height="851" viewBox="0 0 817 851" fill="none" xmlns="http://www.w3.org/2000/svg">
<path opacity="0.1" d="M683.303 455.136C686.334 482.125 684.02 509.447 676.493 535.542C668.966 561.637 656.372 585.994 639.432 607.222C622.491 628.45 601.535 646.133 577.761 659.262C553.986 672.391 527.859 680.709 500.87 683.741" stroke="white" stroke-width="3" stroke-linecap="round"/>
<path opacity="0.1" d="M692.997 274.385C747.058 331.466 776.23 407.684 774.096 486.273C771.961 564.862 738.694 639.384 681.614 693.445C624.534 747.507 548.315 776.679 469.726 774.544C391.137 772.409 316.615 739.143 262.554 682.063" stroke="white" stroke-width="3" stroke-linecap="round"/>
<path opacity="0.1" d="M325.451 123.501C395.609 93.3744 473.125 84.7282 548.197 98.6563C623.269 112.584 692.525 148.461 747.207 201.749C801.889 255.038 839.541 323.345 855.402 398.032C871.263 472.72 864.621 550.433 836.315 621.346C808.008 692.258 759.31 753.184 696.378 796.419C633.445 839.654 559.105 863.257 482.758 864.243C406.412 865.228 331.487 843.552 267.46 801.956C203.432 760.359 153.178 700.71 123.051 630.552" stroke="white" stroke-width="3" stroke-linecap="round"/>
<path opacity="0.1" d="M15.143 588.815C-45.9341 333.311 111.68 76.6703 367.185 15.5932C622.69 -45.4839 879.33 112.131 940.407 367.635C1001.48 623.14 843.869 879.78 588.365 940.857C332.86 1001.93 76.2201 844.32 15.143 588.815Z" stroke="white" stroke-width="3" stroke-linecap="round"/>
</svg>
