<svg width="60" height="60" viewBox="0 0 60 60" fill="none" xmlns="http://www.w3.org/2000/svg">
<g clip-path="url(#clip0_545_233)">
<path d="M37.6034 57.1151H3.1364C1.87624 57.1151 0.888608 56.0287 1.00987 54.7723C3.93413 24.5669 3.22603 31.882 4.60159 17.665C4.70785 16.5698 5.62797 15.7347 6.72811 15.7347H34.0116C35.1118 15.7347 36.0319 16.5698 36.1382 17.665C37.5143 31.888 36.8025 24.5334 39.7299 54.7723C39.8511 56.0287 38.8635 57.1151 37.6034 57.1151Z" fill="#FDF6C4"/>
<path d="M36.465 21.0438C36.5785 22.2191 35.6546 23.2358 34.4739 23.2358C21.2182 23.2358 10.0698 33.2623 8.77913 46.5955C8.5531 48.9302 8.27794 51.7728 7.93589 55.3069C7.83663 56.3321 6.97489 57.1152 5.94489 57.1152H3.1364C1.87624 57.1152 0.888608 56.0288 1.00987 54.7724C3.934 24.5673 3.22641 31.8819 4.60159 17.6651C4.70785 16.57 5.62797 15.7349 6.72811 15.7349H34.0116C35.1118 15.7349 36.0319 16.57 36.1382 17.6651C36.2631 18.9538 36.3704 20.0653 36.465 21.0438Z" fill="#FFFDEC"/>
<path d="M58.9999 32.3732V54.9786C58.9999 56.1588 58.0435 57.1152 56.8634 57.1152H26.6319C25.4518 57.1152 24.4954 56.1588 24.4954 54.9786V32.3732C24.4954 31.1931 25.4518 30.2367 26.6319 30.2367H56.8634C58.0435 30.2367 58.9999 31.1931 58.9999 32.3732Z" fill="#FFFDEC"/>
<path d="M56.8725 33.8622H49.2465C37.6482 33.8622 28.2459 43.2644 28.2459 54.8628C28.2459 57.0607 25.0575 57.4855 24.5525 55.3465C24.4637 54.9697 24.4954 32.123 24.4954 32.2482C24.4954 31.0682 25.4519 30.1117 26.6319 30.1117H56.8633C59.4762 30.1117 59.2899 33.8622 56.8725 33.8622Z" fill="#FFFDEC"/>
<path d="M58.9999 36.3624H24.4954V42.4882H58.9999V36.3624Z" fill="#FFFDEC"/>
<path d="M58.9999 36.3624V42.4882H32.3689C34.2579 39.9429 36.707 37.8401 39.5349 36.3624H58.9999Z" fill="#FDF6C4"/>
<path d="M60 32.3733V42.4883C60 43.0406 59.5522 43.4884 58.9999 43.4884H30.7462C30.1939 43.4884 29.7461 43.0406 29.7461 42.4883C29.7461 41.9359 30.1939 41.4881 30.7462 41.4881H57.9997V37.3626H25.4955V54.9785C25.4955 55.6052 26.0053 56.115 26.6321 56.115H56.8631C57.4898 56.115 57.9996 55.6052 57.9996 54.9785V48.9891C57.9996 48.4368 58.4474 47.989 58.9997 47.989C59.5521 47.989 59.9999 48.4368 59.9999 48.9891V54.9785C59.9999 56.7081 58.5927 58.1153 56.8631 58.1153H26.6321C24.9025 58.1153 23.4953 56.7081 23.4953 54.9785V32.3733C23.4953 30.6437 24.9025 29.2365 26.6321 29.2365H36.2534L35.1429 17.7619C35.0863 17.1764 34.6 16.7349 34.0118 16.7349C33.4594 16.7349 33.0116 16.2871 33.0116 15.7348C33.0116 13.8833 36.854 14.6767 37.1339 17.5693L38.3333 29.9631C38.5113 30.5897 38.0559 31.2368 37.3551 31.2368C25.2287 31.2368 26.9771 31.2368 26.6321 31.2368C26.0053 31.2368 25.4955 31.7466 25.4955 32.3733V35.3623H57.9997V32.3733C57.9997 31.7466 57.4899 31.2368 56.8632 31.2368H44.248C43.6956 31.2368 43.2478 30.789 43.2478 30.2367C43.2478 29.6844 43.6956 29.2365 44.248 29.2365H56.8632C58.5928 29.2365 60 30.6437 60 32.3733ZM51.8739 47.989C51.8739 47.4367 51.4261 46.9888 50.8738 46.9888H47.1233C46.571 46.9888 46.1232 47.4367 46.1232 47.989C46.1232 48.5413 46.571 48.9891 47.1233 48.9891H50.8738C51.4263 48.9891 51.8739 48.5414 51.8739 47.989ZM47.1233 51.3644C46.571 51.3644 46.1232 51.8122 46.1232 52.3645C46.1232 52.9169 46.571 53.3647 47.1233 53.3647H48.4985C49.0508 53.3647 49.4986 52.9169 49.4986 52.3645C49.4986 51.8122 49.0508 51.3644 48.4985 51.3644H47.1233ZM17.9274 56.115H3.13702C2.46581 56.115 1.94099 55.5388 2.00575 54.869L5.59684 17.7619C5.65347 17.1764 6.13978 16.7349 6.72798 16.7349H11.2437V24.611C11.2437 25.1633 11.6915 25.6111 12.2438 25.6111C12.7961 25.6111 13.2439 25.1633 13.2439 24.611V11.0109C13.2439 7.08169 16.4406 3.88502 20.3699 3.88502C24.2991 3.88502 27.4958 7.08169 27.4958 11.0109V14.7348H18.2758C17.7235 14.7348 17.2757 15.1826 17.2757 15.7349C17.2757 16.2873 17.7235 16.7351 18.2758 16.7351H27.4958V24.6111C27.4958 25.1634 27.9436 25.6112 28.4959 25.6112C29.0482 25.6112 29.496 25.1634 29.496 24.6111V11.0109C29.496 5.97879 25.402 1.88477 20.3699 1.88477C15.3377 1.88477 11.2437 5.97879 11.2437 11.0109V14.7348H6.72798C5.1044 14.7348 3.76222 15.9535 3.60583 17.5694L0.0147391 54.6765C-0.163034 56.5143 1.28328 58.1154 3.13702 58.1154H17.9274C18.4797 58.1154 18.9276 57.6676 18.9276 57.1153C18.9276 56.563 18.4799 56.115 17.9274 56.115Z" fill="#221836"/>
</g>
<defs>
<clipPath id="clip0_545_233">
<rect width="60" height="60" fill="white"/>
</clipPath>
</defs>
</svg>
