<svg width="60" height="60" viewBox="0 0 60 60" fill="none" xmlns="http://www.w3.org/2000/svg">
<path d="M35.5 5V55C35.5 57.2088 33.7087 59 31.5 59H8C5.79125 59 4 57.2088 4 55V5C4 2.79125 5.79125 1 8 1H31.5C33.7087 1 35.5 2.79125 35.5 5Z" fill="#F0FFEB"/>
<path d="M35.5 5V16.0737C35.5 17.5387 34.4412 18.79 32.995 19.0312C23.5647 20.6074 15.0476 25.931 9.5475 34.855C7.96375 37.425 4 36.2887 4 33.2713V5C4 2.79125 5.79125 1 8 1H31.5C33.7087 1 35.5 2.79125 35.5 5Z" fill="#F0FFEB"/>
<path d="M29.375 1L27.59 4.21375C27.1488 5.0075 26.3125 5.5 25.4037 5.5C25.1362 5.5 14.0925 5.5 14.0925 5.5C13.185 5.49875 12.3512 5.00625 11.91 4.21375L10.125 1H29.375Z" fill="#F0FFEB"/>
<path d="M57.5 49.125C57.5 50.7752 56.1605 52.125 54.5 52.125C53.2046 52.125 19.7471 52.125 16.625 52.125C14.9688 52.125 13.625 50.7812 13.625 49.125V22.625C13.625 20.9688 14.9688 19.625 16.625 19.625H54.5C56.1562 19.625 57.5 20.9688 57.5 22.625C57.5 31.4578 57.5 40.2972 57.5 49.125Z" fill="#F0FFEB"/>
<path d="M57.5 22.625V49.125C57.5 50.775 56.1608 52.125 54.5 52.125H16.625C14.9681 52.125 13.625 50.7819 13.625 49.125C13.625 48.0804 14.5034 47.2496 15.5463 47.3106C32.215 48.2862 47.2024 39.0959 51.0209 22.4014C51.3923 20.7777 52.8345 19.625 54.5 19.625C56.1569 19.625 57.5 20.9681 57.5 22.625Z" fill="#DEFAD4"/>
<path d="M27.375 26.625V31.5C27.375 32.0522 26.9272 32.5 26.375 32.5H21.5C20.9477 32.5 20.5 32.0522 20.5 31.5V26.625C20.5 26.0727 20.9477 25.625 21.5 25.625H26.375C26.9272 25.625 27.375 26.0727 27.375 26.625Z" fill="#F0FFEB"/>
<path d="M58.5 22.625V49.125C58.5 51.3306 56.7056 53.125 54.5 53.125H40.7916C40.2394 53.125 39.7916 52.6772 39.7916 52.125C39.7916 51.5728 40.2394 51.125 40.7916 51.125H54.5C55.6027 51.125 56.5 50.2277 56.5 49.125V22.625C56.5 21.5222 55.6027 20.625 54.5 20.625H16.625C15.5223 20.625 14.625 21.5222 14.625 22.625V49.125C14.625 50.2277 15.5223 51.125 16.625 51.125H34C34.5522 51.125 35 51.5728 35 52.125V55C35 57.757 32.757 60 30 60H6.5C3.74513 60 1.5035 57.7607 1.5 55.0067C1.5 55.006 1.5 5.00362 1.5 5C1.5 2.243 3.743 0 6.5 0C7.64825 0 29.1205 0 30 0C32.757 0 35 2.243 35 5V13.5C35 14.0522 34.5522 14.5 34 14.5C33.4478 14.5 33 14.0522 33 13.5V5C33 3.34588 31.6541 2 30 2H28.4634L26.9635 4.69975C26.3466 5.81012 25.1744 6.5 23.904 6.5H13.875C13.3228 6.5 12.875 6.05225 12.875 5.5C12.875 4.94775 13.3228 4.5 13.875 4.5H23.904C24.4484 4.5 24.9509 4.20437 25.2153 3.7285L26.1755 2H6.5C4.84588 2 3.5 3.34588 3.5 5V55C3.5 56.6541 4.84588 58 6.5 58H30C31.6541 58 33 56.6541 33 55V53.125H16.625C14.4194 53.125 12.625 51.3306 12.625 49.125V22.625C12.625 20.4194 14.4194 18.625 16.625 18.625H54.5C56.7056 18.625 58.5 20.4194 58.5 22.625ZM33 39C33 38.4478 32.5522 38 32 38H20.5C19.9478 38 19.5 38.4478 19.5 39C19.5 39.5522 19.9478 40 20.5 40H32C32.5522 40 33 39.5522 33 39ZM42.625 39C42.625 38.4478 42.1772 38 41.625 38H37.75C37.1978 38 36.75 38.4478 36.75 39C36.75 39.5522 37.1978 40 37.75 40H41.625C42.1772 40 42.625 39.5522 42.625 39ZM48.25 40C48.8022 40 49.25 39.5522 49.25 39C49.25 38.4478 48.8022 38 48.25 38H46.875C46.3228 38 45.875 38.4478 45.875 39C45.875 39.5522 46.3228 40 46.875 40H48.25ZM20.5 45C19.9478 45 19.5 45.4478 19.5 46C19.5 46.5522 19.9478 47 20.5 47H27C27.5522 47 28 46.5522 28 46C28 45.4478 27.5522 45 27 45H20.5ZM19.5 32.5V25.625C19.5 25.0728 19.9478 24.625 20.5 24.625H27.375C27.9272 24.625 28.375 25.0728 28.375 25.625V32.5C28.375 33.0522 27.9272 33.5 27.375 33.5H20.5C19.9478 33.5 19.5 33.0522 19.5 32.5ZM21.5 31.5H26.375V26.625H21.5V31.5Z" fill="#221836"/>
</svg>
