<svg width="970" height="560" viewBox="0 0 970 560" fill="none" xmlns="http://www.w3.org/2000/svg">
<g opacity="0.3">
<path opacity="0.3" d="M362.737 -9.61279C336.608 3.04816 313.228 20.7317 293.933 42.4282C274.637 64.1248 259.804 89.4093 250.281 116.838C240.757 144.267 236.729 173.304 238.427 202.289C240.125 231.275 247.515 259.642 260.176 285.772" stroke="#5B19EF" stroke-width="2" stroke-linecap="round"/>
<path opacity="0.2" d="M746.556 323.037C717.166 401.781 657.699 465.624 581.236 500.523C504.774 535.421 417.58 538.516 338.836 509.126C260.092 479.736 196.249 420.269 161.35 343.806C126.452 267.344 123.357 180.15 152.747 101.406" stroke="#5B19EF" stroke-width="2" stroke-linecap="round"/>
<path opacity="0.1" d="M849.626 110.452C869.754 189.56 865.972 272.86 838.759 349.819C811.545 426.777 762.122 493.938 696.739 542.807C631.355 591.677 552.949 620.061 471.434 624.369C389.92 628.678 308.958 608.718 238.787 567.013C168.617 525.309 112.389 463.733 77.2136 390.072C42.0385 316.411 29.4964 233.974 41.1733 153.185C52.85 72.3962 88.2213 -3.11588 142.814 -63.8022C197.407 -124.488 268.769 -167.623 347.877 -187.752" stroke="#5B19EF" stroke-width="2" stroke-linecap="round"/>
<path opacity="0.05" d="M125.964 -179.989C342.576 -358.758 663.095 -328.079 841.863 -111.467C1020.63 105.145 989.953 425.664 773.341 604.432C556.729 783.201 236.209 752.522 57.4412 535.91C-121.327 319.298 -90.6486 -1.22122 125.964 -179.989Z" stroke="#5B19EF" stroke-width="2" stroke-linecap="round"/>
</g>
</svg>
